<svg width="24" height="24" viewBox="0 0 24 24" fill="none" xmlns="http://www.w3.org/2000/svg">
<path d="M20 12C20 10.5467 19.6333 9.2 18.9 7.96C18.1933 6.76 17.24 5.80667 16.04 5.1C14.8 4.36667 13.4533 4 12 4C10.5467 4 9.2 4.36667 7.96 5.1C6.76 5.80667 5.80667 6.76 5.1 7.96C4.36667 9.2 4 10.5467 4 12C4 13.4533 4.36667 14.8 5.1 16.04C5.80667 17.24 6.76 18.1933 7.96 18.9C9.2 19.6333 10.5467 20 12 20C12.8133 20 13.5933 19.8833 14.34 19.65C15.0867 19.4167 15.7867 19.0867 16.44 18.66L17.54 20.32C16.74 20.8667 15.8733 21.28 14.94 21.56C13.9933 21.8533 13.0133 22 12 22C10.64 22 9.34 21.74 8.1 21.22C6.91333 20.7133 5.85667 19.9967 4.93 19.07C4.00333 18.1433 3.28667 17.0867 2.78 15.9C2.26 14.66 2 13.36 2 12C2 10.64 2.26 9.34 2.78 8.1C3.28667 6.91333 4.00333 5.85667 4.93 4.93C5.85667 4.00333 6.91333 3.28667 8.1 2.78C9.34 2.26 10.64 2 12 2C13.36 2 14.66 2.26 15.9 2.78C17.0867 3.28667 18.1433 4.00333 19.07 4.93C19.9967 5.85667 20.7133 6.91333 21.22 8.1C21.74 9.34 22 10.64 22 12V13.5C22 14.14 21.8433 14.7267 21.53 15.26C21.2167 15.7933 20.7933 16.2167 20.26 16.53C19.7267 16.8433 19.14 17 18.5 17C17.9133 17 17.3633 16.8633 16.85 16.59C16.3367 16.3167 15.92 15.94 15.6 15.46C15.1333 15.94 14.59 16.3167 13.97 16.59C13.35 16.8633 12.6933 17 12 17C11.0933 17 10.2567 16.7767 9.49 16.33C8.72333 15.8833 8.11667 15.2767 7.67 14.51C7.22333 13.7433 7 12.9067 7 12C7 11.0933 7.22333 10.2567 7.67 9.49C8.11667 8.72333 8.72333 8.11667 9.49 7.67C10.2567 7.22333 11.0933 7 12 7C12.56 7 13.0933 7.08667 13.6 7.26C14.1067 7.43333 14.5733 7.68 15 8H17V13.5C17 13.9133 17.1467 14.2667 17.44 14.56C17.7333 14.8533 18.0867 15 18.5 15C18.9133 15 19.2667 14.8533 19.56 14.56C19.8533 14.2667 20 13.9133 20 13.5V12ZM12 9C11.4533 9 10.95 9.13333 10.49 9.4C10.03 9.66667 9.66667 10.03 9.4 10.49C9.13333 10.95 9 11.4533 9 12C9 12.5467 9.13333 13.05 9.4 13.51C9.66667 13.97 10.03 14.3333 10.49 14.6C10.95 14.8667 11.4533 15 12 15C12.5467 15 13.05 14.8667 13.51 14.6C13.97 14.3333 14.3333 13.97 14.6 13.51C14.8667 13.05 15 12.5467 15 12C15 11.4533 14.8667 10.95 14.6 10.49C14.3333 10.03 13.97 9.66667 13.51 9.4C13.05 9.13333 12.5467 9 12 9Z" fill="white"/>
</svg>
