<svg width="24" height="24" viewBox="0 0 24 24" fill="none" xmlns="http://www.w3.org/2000/svg">
<path d="M4 2H20C20.28 2 20.5167 2.09667 20.71 2.29C20.9033 2.48333 21 2.72 21 3V21C21 21.28 20.9033 21.5167 20.71 21.71C20.5167 21.9033 20.28 22 20 22H4C3.72 22 3.48333 21.9033 3.29 21.71C3.09667 21.5167 3 21.28 3 21V3C3 2.72 3.09667 2.48333 3.29 2.29C3.48333 2.09667 3.72 2 4 2ZM5 4V20H19V4H5ZM7 6H17V10H7V6ZM7 12H9V14H7V12ZM7 16H9V18H7V16ZM11 12H13V14H11V12ZM11 16H13V18H11V16ZM15 12H17V18H15V12Z" fill="white"/>
</svg>
