<svg width="20" height="20" viewBox="0 0 20 20" fill="none" xmlns="http://www.w3.org/2000/svg">
<path d="M7.8 8.9C8.18889 9.58889 8.66389 10.2139 9.225 10.775C9.78611 11.3361 10.4111 11.8111 11.1 12.2L11.8333 11.1667C11.9556 10.9889 12.1194 10.8778 12.325 10.8333C12.5306 10.7889 12.7278 10.8167 12.9167 10.9167C14.1056 11.5722 15.3778 11.95 16.7333 12.05C16.9444 12.0722 17.125 12.1611 17.275 12.3167C17.425 12.4722 17.5 12.6611 17.5 12.8833V16.6C17.5 16.8111 17.4278 16.9972 17.2833 17.1583C17.1389 17.3194 16.9611 17.4111 16.75 17.4333C16.3056 17.4778 15.8611 17.5 15.4167 17.5C13.6611 17.5 11.9833 17.1611 10.3833 16.4833C8.83889 15.8278 7.47222 14.9056 6.28333 13.7167C5.09444 12.5278 4.17222 11.1611 3.51667 9.61667C2.83889 8.01667 2.5 6.33889 2.5 4.58333C2.5 4.13889 2.52222 3.69444 2.56667 3.25C2.58889 3.03889 2.68056 2.86111 2.84167 2.71667C3.00278 2.57222 3.18889 2.5 3.4 2.5H7.11667C7.33889 2.5 7.52778 2.575 7.68333 2.725C7.83889 2.875 7.92778 3.05555 7.95 3.26667C8.05 4.62222 8.42778 5.89444 9.08333 7.08333C9.18333 7.27222 9.21111 7.46944 9.16667 7.675C9.12222 7.88056 9.01111 8.04444 8.83333 8.16667L7.8 8.9ZM5.7 8.35L7.28333 7.21667C6.83889 6.25 6.53333 5.23333 6.36667 4.16667H4.16667V4.58333C4.16667 6.10556 4.46111 7.56667 5.05 8.96667C5.61667 10.3111 6.41944 11.5028 7.45833 12.5417C8.49722 13.5806 9.68889 14.3833 11.0333 14.95C12.4333 15.5389 13.8944 15.8333 15.4167 15.8333H15.8333V13.6333C14.7667 13.4667 13.75 13.1611 12.7833 12.7167L11.65 14.3C11.1944 14.1222 10.75 13.9111 10.3167 13.6667L10.2667 13.65C9.45556 13.1833 8.71667 12.6167 8.05 11.95C7.38333 11.2833 6.81667 10.5444 6.35 9.73333L6.33333 9.68333C6.08889 9.25 5.87778 8.80556 5.7 8.35Z" fill="#2563EB"/>
</svg>
