<svg width="31" height="31" viewBox="0 0 31 31" fill="none" xmlns="http://www.w3.org/2000/svg">
<path d="M15.01 28.0083C13.3089 28.0083 11.6828 27.6831 10.1318 27.0327C8.64747 26.3989 7.32576 25.5025 6.16665 24.3434C5.00755 23.1843 4.11111 21.8625 3.47736 20.3782C2.82693 18.8272 2.50171 17.2011 2.50171 15.5C2.50171 13.7988 2.82693 12.1728 3.47736 10.6217C4.11111 9.13739 5.00755 7.81568 6.16665 6.65658C7.32576 5.49747 8.64747 4.60104 10.1318 3.96728C11.6828 3.31685 13.3089 2.99163 15.01 2.99163C16.7112 2.99163 18.3373 3.31685 19.8883 3.96728C21.3726 4.60104 22.6943 5.49747 23.8534 6.65658C25.0125 7.81568 25.909 9.13739 26.5427 10.6217C27.1932 12.1728 27.5184 13.7988 27.5184 15.5C27.5184 17.2011 27.1932 18.8272 26.5427 20.3782C25.909 21.8625 25.0125 23.1843 23.8534 24.3434C22.6943 25.5025 21.3726 26.3989 19.8883 27.0327C18.3373 27.6831 16.7112 28.0083 15.01 28.0083ZM15.01 25.5066C16.8279 25.5066 18.5124 25.048 20.0634 24.1307C21.5644 23.2468 22.7569 22.0543 23.6408 20.5533C24.5581 19.0023 25.0167 17.3178 25.0167 15.5C25.0167 13.6821 24.5581 11.9976 23.6408 10.4466C22.7569 8.9456 21.5644 7.75314 20.0634 6.86922C18.5124 5.95194 16.8279 5.4933 15.01 5.4933C13.1922 5.4933 11.5077 5.95194 9.95668 6.86922C8.45568 7.75314 7.26321 8.9456 6.37929 10.4466C5.46201 11.9976 5.00338 13.6821 5.00338 15.5C5.00338 17.3178 5.46201 19.0023 6.37929 20.5533C7.26321 22.0543 8.45568 23.2468 9.95668 24.1307C11.5077 25.048 13.1922 25.5066 15.01 25.5066ZM16.2609 15.5H21.2642V18.0016H13.7592V9.2458H16.2609V15.5Z" fill="white"/>
</svg>
