<svg width="24" height="24" viewBox="0 0 24 24" fill="none" xmlns="http://www.w3.org/2000/svg">
<path d="M12 9C11.4533 9 10.95 9.13333 10.49 9.4C10.03 9.66667 9.66667 10.03 9.4 10.49C9.13333 10.95 9 11.4533 9 12C9 12.5467 9.13333 13.05 9.4 13.51C9.66667 13.97 10.03 14.3333 10.49 14.6C10.95 14.8667 11.4533 15 12 15C12.5467 15 13.05 14.8667 13.51 14.6C13.97 14.3333 14.3333 13.97 14.6 13.51C14.8667 13.05 15 12.5467 15 12C15 11.4533 14.8667 10.95 14.6 10.49C14.3333 10.03 13.97 9.66667 13.51 9.4C13.05 9.13333 12.5467 9 12 9ZM12 7C12.9067 7 13.7433 7.22333 14.51 7.67C15.2767 8.11667 15.8833 8.72333 16.33 9.49C16.7767 10.2567 17 11.0933 17 12C17 12.9067 16.7767 13.7433 16.33 14.51C15.8833 15.2767 15.2767 15.8833 14.51 16.33C13.7433 16.7767 12.9067 17 12 17C11.0933 17 10.2567 16.7767 9.49 16.33C8.72333 15.8833 8.11667 15.2767 7.67 14.51C7.22333 13.7433 7 12.9067 7 12C7 11.0933 7.22333 10.2567 7.67 9.49C8.11667 8.72333 8.72333 8.11667 9.49 7.67C10.2567 7.22333 11.0933 7 12 7ZM18.5 6.74C18.5 7.08667 18.3767 7.38333 18.13 7.63C17.8833 7.87667 17.59 8 17.25 8C16.91 8 16.6167 7.87667 16.37 7.63C16.1233 7.38333 16 7.09 16 6.75C16 6.41 16.1233 6.11667 16.37 5.87C16.6167 5.62333 16.91 5.5 17.25 5.5C17.59 5.5 17.8833 5.62333 18.13 5.87C18.3767 6.11667 18.5 6.40667 18.5 6.74ZM12 4C10.7733 4 9.94 4.00333 9.5 4.01C9.06 4.01667 8.55333 4.03333 7.98 4.06C7.26 4.08667 6.66 4.19333 6.18 4.38C5.76667 4.54 5.40333 4.77667 5.09 5.09C4.77667 5.40333 4.54 5.76667 4.38 6.18C4.19333 6.66 4.08667 7.26 4.06 7.98C4.03333 8.52667 4.01667 9.01667 4.01 9.45C4.00333 9.88333 4 10.7333 4 12C4 13.2267 4.00333 14.06 4.01 14.5C4.01667 14.94 4.03333 15.4467 4.06 16.02C4.08667 16.74 4.19333 17.34 4.38 17.82C4.54 18.2333 4.77667 18.5967 5.09 18.91C5.40333 19.2233 5.76667 19.4533 6.18 19.6C6.66 19.8 7.26 19.9133 7.98 19.94C8.52667 19.9667 9.01667 19.9833 9.45 19.99C9.88333 19.9967 10.7333 20 12 20C13.2267 20 14.06 19.9967 14.5 19.99C14.94 19.9833 15.4467 19.9667 16.02 19.94C16.74 19.9133 17.34 19.8067 17.82 19.62C18.2333 19.46 18.5967 19.2233 18.91 18.91C19.2233 18.5967 19.4533 18.2333 19.6 17.82C19.8 17.34 19.9133 16.74 19.94 16.02C19.9667 15.4733 19.9833 14.9833 19.99 14.55C19.9967 14.1167 20 13.2667 20 12C20 10.7733 19.9967 9.94 19.99 9.5C19.9833 9.06 19.9667 8.55333 19.94 7.98C19.9133 7.26 19.8067 6.66 19.62 6.18C19.46 5.76667 19.2233 5.40333 18.91 5.09C18.5967 4.77667 18.2333 4.54 17.82 4.38C17.34 4.19333 16.74 4.08667 16.02 4.06C15.4733 4.03333 14.9833 4.01667 14.55 4.01C14.1167 4.00333 13.2667 4 12 4ZM12 2C13.3067 2 14.2 2.00667 14.68 2.02C15.08 2.02 15.56 2.03333 16.12 2.06C17.0533 2.1 17.86 2.25333 18.54 2.52C19.22 2.78667 19.8133 3.17333 20.32 3.68C20.8267 4.18667 21.2133 4.78 21.48 5.46C21.7467 6.14 21.9 6.94667 21.94 7.88C21.9667 8.45333 21.98 8.93333 21.98 9.32C21.9933 9.82667 22 10.7267 22 12.02C22 13.3133 21.9933 14.2 21.98 14.68C21.98 15.08 21.9667 15.56 21.94 16.12C21.9 17.0533 21.7467 17.86 21.48 18.54C21.2133 19.22 20.8267 19.8133 20.32 20.32C19.8133 20.8267 19.22 21.2133 18.54 21.48C17.86 21.7467 17.0533 21.9 16.12 21.94C15.5467 21.9667 15.0667 21.98 14.68 21.98C14.1733 21.9933 13.2733 22 11.98 22C10.6867 22 9.8 21.9933 9.32 21.98C8.92 21.98 8.44 21.9667 7.88 21.94C6.94667 21.9 6.14 21.7467 5.46 21.48C4.78 21.2133 4.18667 20.8267 3.68 20.32C3.17333 19.8133 2.78667 19.22 2.52 18.54C2.25333 17.86 2.1 17.0533 2.06 16.12C2.03333 15.5467 2.02 15.0667 2.02 14.68C2.00667 14.1733 2 13.2733 2 11.98C2 10.6867 2.00667 9.8 2.02 9.32C2.02 8.92 2.03333 8.44 2.06 7.88C2.1 6.94667 2.25333 6.14 2.52 5.46C2.78667 4.78 3.17333 4.18667 3.68 3.68C4.18667 3.17333 4.78 2.78667 5.46 2.52C6.14 2.25333 6.94667 2.1 7.88 2.06C8.45333 2.03333 8.93333 2.02 9.32 2.02C9.82667 2.00667 10.72 2 12 2Z" fill="white"/>
</svg>
