<svg width="31" height="31" viewBox="0 0 31 31" fill="none" xmlns="http://www.w3.org/2000/svg">
<path d="M15.005 5.84176C15.972 4.97481 17.0807 4.40378 18.3311 4.12869C19.5815 3.8536 20.8152 3.88278 22.0323 4.21622C23.2994 4.56634 24.3956 5.20405 25.3209 6.12936C26.2462 7.05467 26.8839 8.15087 27.234 9.41795C27.5675 10.635 27.5967 11.8646 27.3216 13.1067C27.0465 14.3488 26.4755 15.4616 25.6085 16.4453L15.005 27.0488L4.40144 16.4453C3.53448 15.4616 2.96346 14.3488 2.68837 13.1067C2.41327 11.8646 2.44245 10.635 2.77589 9.41795C3.12601 8.15087 3.76789 7.05467 4.70154 6.12936C5.63518 5.20405 6.72721 4.56634 7.97763 4.21622C9.1947 3.88278 10.4284 3.8536 11.6789 4.12869C12.9293 4.40378 14.038 4.97481 15.005 5.84176ZM23.5328 7.89245C22.9159 7.27557 22.199 6.8546 21.3821 6.62953C20.5652 6.40445 19.7399 6.38361 18.9063 6.567C18.0727 6.7504 17.3307 7.13386 16.6805 7.71739L15.005 9.21789L13.3294 7.71739C12.6959 7.13386 11.9581 6.7504 11.1162 6.567C10.2742 6.38361 9.44478 6.40445 8.62785 6.62953C7.81091 6.8546 7.094 7.27557 6.47713 7.89245C5.86026 8.50932 5.43511 9.22622 5.2017 10.0432C4.96829 10.8601 4.93912 11.6812 5.11417 12.5065C5.28923 13.3318 5.66019 14.0695 6.22705 14.7197L15.005 23.5227L23.7829 14.7197C24.3498 14.0695 24.7207 13.3318 24.8958 12.5065C25.0708 11.6812 25.0416 10.8601 24.8082 10.0432C24.5748 9.22622 24.1497 8.50932 23.5328 7.89245Z" fill="white"/>
</svg>
