<svg width="20" height="20" viewBox="0 0 20 20" fill="none" xmlns="http://www.w3.org/2000/svg">
<path d="M10 16.6998L14.1167 12.5665C14.8722 11.822 15.3833 10.9442 15.65 9.93314C15.9056 8.94425 15.9056 7.95536 15.65 6.96647C15.3833 5.95536 14.875 5.0748 14.125 4.3248C13.375 3.5748 12.4944 3.06647 11.4833 2.7998C10.4944 2.54425 9.50556 2.54425 8.51667 2.7998C7.50556 3.06647 6.625 3.5748 5.875 4.3248C5.125 5.0748 4.61667 5.95536 4.35 6.96647C4.09444 7.95536 4.09444 8.94425 4.35 9.93314C4.61667 10.9442 5.12778 11.822 5.88333 12.5665L10 16.6998ZM10 19.0498L4.7 13.7498C3.73333 12.7942 3.08333 11.6609 2.75 10.3498C2.41667 9.08314 2.41667 7.81647 2.75 6.5498C3.08333 5.23869 3.73056 4.10258 4.69167 3.14147C5.65278 2.18036 6.78889 1.52758 8.1 1.18314C9.36667 0.860915 10.6333 0.860915 11.9 1.18314C13.2111 1.52758 14.3472 2.18036 15.3083 3.14147C16.2694 4.10258 16.9167 5.23869 17.25 6.5498C17.5833 7.81647 17.5833 9.08314 17.25 10.3498C16.9167 11.6609 16.2667 12.7942 15.3 13.7498L10 19.0498ZM10 10.1165C10.3 10.1165 10.5778 10.0415 10.8333 9.89147C11.0889 9.74147 11.2917 9.53869 11.4417 9.28314C11.5917 9.02758 11.6667 8.7498 11.6667 8.4498C11.6667 8.1498 11.5917 7.87203 11.4417 7.61647C11.2917 7.36092 11.0889 7.15814 10.8333 7.00814C10.5778 6.85814 10.3 6.78314 10 6.78314C9.7 6.78314 9.42222 6.85814 9.16667 7.00814C8.91111 7.15814 8.70833 7.36092 8.55833 7.61647C8.40833 7.87203 8.33333 8.1498 8.33333 8.4498C8.33333 8.7498 8.40833 9.02758 8.55833 9.28314C8.70833 9.53869 8.91111 9.74147 9.16667 9.89147C9.42222 10.0415 9.7 10.1165 10 10.1165ZM10 11.7831C9.4 11.7831 8.84444 11.6331 8.33333 11.3331C7.82222 11.0331 7.41667 10.6276 7.11667 10.1165C6.81667 9.60536 6.66667 9.04703 6.66667 8.44147C6.66667 7.83592 6.81667 7.28036 7.11667 6.7748C7.41667 6.26925 7.82222 5.86647 8.33333 5.56647C8.84444 5.26647 9.4 5.11647 10 5.11647C10.6 5.11647 11.1556 5.26647 11.6667 5.56647C12.1778 5.86647 12.5833 6.26925 12.8833 6.7748C13.1833 7.28036 13.3333 7.83592 13.3333 8.44147C13.3333 9.04703 13.1833 9.60536 12.8833 10.1165C12.5833 10.6276 12.1778 11.0331 11.6667 11.3331C11.1556 11.6331 10.6 11.7831 10 11.7831Z" fill="#2563EB"/>
</svg>
