<svg width="20" height="20" viewBox="0 0 20 20" fill="none" xmlns="http://www.w3.org/2000/svg">
<path d="M2.49996 2.5H17.5C17.7333 2.5 17.9305 2.58055 18.0916 2.74167C18.2527 2.90278 18.3333 3.1 18.3333 3.33333V16.6667C18.3333 16.9 18.2527 17.0972 18.0916 17.2583C17.9305 17.4194 17.7333 17.5 17.5 17.5H2.49996C2.26663 17.5 2.0694 17.4194 1.90829 17.2583C1.74718 17.0972 1.66663 16.9 1.66663 16.6667V3.33333C1.66663 3.1 1.74718 2.90278 1.90829 2.74167C2.0694 2.58055 2.26663 2.5 2.49996 2.5ZM16.6666 6.03333L10.0666 11.95L3.33329 6.01667V15.8333H16.6666V6.03333ZM3.76663 4.16667L10.05 9.71667L16.25 4.16667H3.76663Z" fill="#2563EB"/>
</svg>
