<svg width="31" height="31" viewBox="0 0 31 31" fill="none" xmlns="http://www.w3.org/2000/svg">
<path d="M15.0099 1.74094L25.2918 4.01746C25.5753 4.08417 25.8088 4.23427 25.9923 4.46776C26.1757 4.70125 26.2674 4.95975 26.2674 5.24328V17.7266C26.2674 18.9941 25.9714 20.1782 25.3794 21.279C24.7873 22.3797 23.9659 23.2803 22.9152 23.9808L15.0099 29.2593L7.10467 23.9808C6.05397 23.2803 5.23259 22.3797 4.64053 21.279C4.04847 20.1782 3.75244 18.9941 3.75244 17.7266V5.24328C3.75244 4.95975 3.84417 4.70125 4.02762 4.46776C4.21108 4.23427 4.44457 4.08417 4.72809 4.01746L15.0099 1.74094ZM15.0099 4.29264L6.25411 6.24394V17.7266C6.25411 18.5772 6.45007 19.3694 6.842 20.1032C7.23393 20.837 7.78012 21.4374 8.48059 21.9044L15.0099 26.2573L21.5393 21.9044C22.2398 21.4374 22.786 20.837 23.1779 20.1032C23.5698 19.3694 23.7658 18.5772 23.7658 17.7266V6.24394L15.0099 4.29264ZM20.5887 10.772L22.3398 12.5481L14.3845 20.5034L9.08099 15.1999L10.8572 13.4237L14.3845 16.9761L20.5887 10.772Z" fill="white"/>
</svg>
