<svg width="31" height="31" viewBox="0 0 31 31" fill="none" xmlns="http://www.w3.org/2000/svg">
<path d="M4.17634 21.7471C3.64282 20.8302 3.23436 19.8632 2.95093 18.8462C3.5678 18.5294 4.0638 18.0709 4.43892 17.4707C4.81405 16.8705 5.00161 16.212 5.00161 15.495C5.00161 14.7781 4.81405 14.1196 4.43892 13.5194C4.0638 12.9192 3.5678 12.4607 2.95093 12.1439C3.53446 10.0599 4.57647 8.25097 6.07697 6.71712C6.6605 7.10059 7.30655 7.30482 8.01512 7.32983C8.72368 7.35484 9.38641 7.18811 10.0033 6.82966C10.6202 6.47121 11.0953 5.97938 11.4288 5.35417C11.7622 4.72896 11.9122 4.07458 11.8789 3.39102C13.9629 2.84083 16.047 2.84083 18.131 3.39102C18.0976 4.07458 18.2477 4.72896 18.5811 5.35417C18.9146 5.97938 19.3897 6.47121 20.0066 6.82966C20.6235 7.18811 21.2862 7.35484 21.9948 7.32983C22.7033 7.30482 23.3494 7.10059 23.9329 6.71712C24.6665 7.48405 25.3 8.32599 25.8336 9.24297C26.3671 10.1599 26.7755 11.1269 27.059 12.1439C26.4421 12.4607 25.9461 12.9192 25.571 13.5194C25.1958 14.1196 25.0083 14.7781 25.0083 15.495C25.0083 16.212 25.1958 16.8705 25.571 17.4707C25.9461 18.0709 26.4421 18.5294 27.059 18.8462C26.4754 20.9302 25.4334 22.7391 23.9329 24.273C23.3494 23.8895 22.7033 23.6853 21.9948 23.6603C21.2862 23.6353 20.6235 23.802 20.0066 24.1604C19.3897 24.5189 18.9146 25.0107 18.5811 25.6359C18.2477 26.2611 18.0976 26.9155 18.131 27.5991C16.047 28.1493 13.9629 28.1493 11.8789 27.5991C11.9122 26.9155 11.7622 26.2611 11.4288 25.6359C11.0953 25.0107 10.6202 24.5189 10.0033 24.1604C9.38641 23.802 8.72368 23.6353 8.01512 23.6603C7.30655 23.6853 6.6605 23.8895 6.07697 24.273C5.34339 23.5061 4.70985 22.6641 4.17634 21.7471ZM11.2537 21.9972C11.9206 22.3807 12.4958 22.8725 12.9793 23.4727C13.4628 24.0729 13.8296 24.7315 14.0796 25.4484C14.6965 25.5151 15.3134 25.5151 15.9303 25.4484C16.1803 24.7315 16.543 24.0729 17.0181 23.4727C17.4933 22.8725 18.0685 22.3765 18.7437 21.9847C19.4189 21.5929 20.14 21.3387 20.9069 21.222C21.6738 21.1053 22.4241 21.1303 23.1577 21.297C23.5245 20.7801 23.8412 20.2383 24.108 19.6714C23.5911 19.1046 23.1952 18.4627 22.9201 17.7458C22.645 17.0289 22.5074 16.2786 22.5074 15.495C22.5074 14.7115 22.645 13.9612 22.9201 13.2443C23.1952 12.5274 23.5911 11.8855 24.108 11.3187C23.9746 11.0352 23.8287 10.7601 23.6703 10.4934C23.5119 10.2266 23.3411 9.95987 23.1577 9.69312C22.4241 9.85984 21.6738 9.88485 20.9069 9.76814C20.14 9.65144 19.4231 9.39718 18.7562 9.00539C18.0893 8.61359 17.5141 8.11759 17.0306 7.51739C16.5471 6.91719 16.1803 6.25864 15.9303 5.54173C15.3134 5.47504 14.6965 5.47504 14.0796 5.54173C13.8296 6.25864 13.4669 6.91719 12.9918 7.51739C12.5166 8.11759 11.9373 8.61359 11.2537 9.00539C10.5701 9.39718 9.84906 9.65144 9.09047 9.76814C8.33189 9.88485 7.58581 9.85984 6.85223 9.69312C6.48544 10.21 6.16867 10.7518 5.90191 11.3187C6.41875 11.8855 6.81472 12.5274 7.08981 13.2443C7.3649 13.9612 7.50244 14.7115 7.50244 15.495C7.50244 16.2786 7.3649 17.0289 7.08981 17.7458C6.81472 18.4627 6.41875 19.1046 5.90191 19.6714C6.03529 19.9549 6.18117 20.23 6.33956 20.4967C6.49794 20.7635 6.66883 21.0302 6.85223 21.297C7.58581 21.1303 8.33606 21.1053 9.10298 21.222C9.8699 21.3387 10.5868 21.5971 11.2537 21.9972ZM15.0049 19.2463C14.3214 19.2463 13.692 19.0796 13.1168 18.7461C12.5416 18.4127 12.0873 17.9584 11.7539 17.3832C11.4204 16.808 11.2537 16.1786 11.2537 15.495C11.2537 14.8115 11.4204 14.1821 11.7539 13.6069C12.0873 13.0317 12.5416 12.5774 13.1168 12.244C13.692 11.9105 14.3214 11.7438 15.0049 11.7438C15.6885 11.7438 16.3179 11.9105 16.8931 12.244C17.4683 12.5774 17.9226 13.0317 18.256 13.6069C18.5895 14.1821 18.7562 14.8115 18.7562 15.495C18.7562 16.1786 18.5895 16.808 18.256 17.3832C17.9226 17.9584 17.4683 18.4127 16.8931 18.7461C16.3179 19.0796 15.6885 19.2463 15.0049 19.2463ZM15.0049 16.7455C15.3551 16.7455 15.651 16.6246 15.8927 16.3828C16.1345 16.1411 16.2554 15.8452 16.2554 15.495C16.2554 15.1449 16.1345 14.849 15.8927 14.6073C15.651 14.3655 15.3551 14.2446 15.0049 14.2446C14.6548 14.2446 14.3589 14.3655 14.1171 14.6073C13.8754 14.849 13.7545 15.1449 13.7545 15.495C13.7545 15.8452 13.8754 16.1411 14.1171 16.3828C14.3589 16.6246 14.6548 16.7455 15.0049 16.7455Z" fill="white"/>
</svg>
