<svg width="31" height="31" viewBox="0 0 31 31" fill="none" xmlns="http://www.w3.org/2000/svg">
<path d="M24.9416 10.4968H26.2675C26.7178 10.4968 27.1348 10.6094 27.5184 10.8345C27.9019 11.0597 28.2063 11.364 28.4315 11.7476C28.6566 12.1312 28.7692 12.5481 28.7692 12.9984V18.0018C28.7692 18.4521 28.6566 18.869 28.4315 19.2526C28.2063 19.6362 27.9019 19.9406 27.5184 20.1657C27.1348 20.3909 26.7178 20.5034 26.2675 20.5034H24.9416C24.7415 22.1379 24.1745 23.6222 23.2405 24.9564C22.3065 26.2906 21.1308 27.333 19.7132 28.0835C18.2455 28.8673 16.6778 29.2593 15.01 29.2593V26.7576C16.3609 26.7576 17.6201 26.4157 18.7875 25.7319C19.9216 25.0648 20.8222 24.1642 21.4893 23.0301C22.1731 21.8627 22.515 20.6035 22.515 19.2526V11.7476C22.515 10.3967 22.1731 9.13754 21.4893 7.97009C20.8222 6.836 19.9216 5.9354 18.7875 5.26829C17.6201 4.5845 16.3609 4.24261 15.01 4.24261C13.6591 4.24261 12.3999 4.5845 11.2325 5.26829C10.0984 5.9354 9.19782 6.836 8.5307 7.97009C7.84692 9.13754 7.50502 10.3967 7.50502 11.7476V20.5034H3.75252C3.30222 20.5034 2.88528 20.3909 2.50169 20.1657C2.1181 19.9406 1.81373 19.6362 1.58858 19.2526C1.36343 18.869 1.25085 18.4521 1.25085 18.0018V12.9984C1.25085 12.5481 1.36343 12.1312 1.58858 11.7476C1.81373 11.364 2.1181 11.0597 2.50169 10.8345C2.88528 10.6094 3.30222 10.4968 3.75252 10.4968H5.0784C5.27854 8.86235 5.84558 7.37803 6.77954 6.04381C7.71349 4.70959 8.88928 3.66723 10.3069 2.91673C11.7745 2.13287 13.3422 1.74094 15.01 1.74094C16.6778 1.74094 18.2455 2.13287 19.7132 2.91673C21.1308 3.66723 22.3065 4.70959 23.2405 6.04381C24.1745 7.37803 24.7415 8.86235 24.9416 10.4968ZM3.75252 12.9984V18.0018H5.00335V12.9984H3.75252ZM25.0167 12.9984V18.0018H26.2675V12.9984H25.0167ZM9.70649 20.2283L11.0324 18.1018C12.2498 18.869 13.5757 19.2526 15.01 19.2526C16.4443 19.2526 17.7702 18.869 18.9877 18.1018L20.3136 20.2283C19.5297 20.7286 18.6875 21.108 17.7869 21.3665C16.8863 21.625 15.9607 21.7543 15.01 21.7543C14.0594 21.7543 13.1338 21.625 12.2332 21.3665C11.3326 21.108 10.4903 20.7286 9.70649 20.2283Z" fill="white"/>
</svg>
