<svg width="24" height="24" viewBox="0 0 24 24" fill="none" xmlns="http://www.w3.org/2000/svg">
<path d="M11.04 2V8.42C10.64 8.34 10.2267 8.3 9.8 8.3C8.56 8.3 7.40667 8.61333 6.34 9.24C5.31334 9.84 4.49334 10.66 3.88 11.7C3.25334 12.7533 2.94 13.9033 2.94 15.15C2.94 16.3967 3.25334 17.5467 3.88 18.6C4.49334 19.64 5.31334 20.46 6.34 21.06C7.40667 21.6867 8.56 22 9.8 22C11.04 22 12.1933 21.6867 13.26 21.06C14.2867 20.46 15.1067 19.64 15.72 18.6C16.3333 17.5467 16.64 16.3933 16.64 15.14V11.42C17.72 11.8733 18.86 12.1 20.06 12.1H21.06V6.5H20.06C19.4333 6.5 18.86 6.34667 18.34 6.04C17.82 5.73333 17.4067 5.31 17.1 4.77C16.7933 4.23 16.64 3.64 16.64 3V2H11.04ZM13.04 4H14.74C14.8733 4.73333 15.1367 5.41 15.53 6.03C15.9233 6.65 16.4233 7.16667 17.03 7.58C17.6367 7.99333 18.3133 8.26667 19.06 8.4V10.02C18.06 9.87333 17.1067 9.5 16.2 8.9L14.64 7.86V15.14C14.64 16.02 14.4233 16.8333 13.99 17.58C13.5567 18.3267 12.97 18.9167 12.23 19.35C11.49 19.7833 10.68 20 9.8 20C8.92 20 8.11 19.7833 7.37 19.35C6.63 18.9167 6.04 18.3267 5.6 17.58C5.16 16.8333 4.94 16.0233 4.94 15.15C4.94 14.2767 5.16 13.4667 5.6 12.72C6.04 11.9733 6.63 11.3833 7.37 10.95C8.11 10.5167 8.92 10.3 9.8 10.3H10.06V11.9H9.8C9.21334 11.9 8.67 12.0467 8.17 12.34C7.67 12.6333 7.27334 13.0267 6.98 13.52C6.68667 14.0133 6.54 14.5567 6.54 15.15C6.54 15.7433 6.68667 16.2867 6.98 16.78C7.27334 17.2733 7.67 17.6667 8.17 17.96C8.67 18.2533 9.21334 18.4 9.8 18.4C10.3867 18.4 10.93 18.2533 11.43 17.96C11.93 17.6667 12.3233 17.2733 12.61 16.78C12.8967 16.2867 13.04 15.74 13.04 15.14V4ZM8.54 15.14C8.54 14.8067 8.66334 14.5167 8.91 14.27C9.15667 14.0233 9.45334 13.9 9.8 13.9C10.1467 13.9 10.44 14.0233 10.68 14.27C10.92 14.5167 11.04 14.81 11.04 15.15C11.04 15.49 10.92 15.7833 10.68 16.03C10.44 16.2767 10.1467 16.4 9.8 16.4C9.45334 16.4 9.15667 16.2767 8.91 16.03C8.66334 15.7833 8.54 15.4867 8.54 15.14Z" fill="white"/>
</svg>
