<svg width="24" height="24" viewBox="0 0 24 24" fill="none" xmlns="http://www.w3.org/2000/svg">
<path d="M19.6 7C19.56 6.85333 19.4933 6.72667 19.4 6.62C19.3067 6.51333 19.1933 6.44 19.06 6.4C18.74 6.30667 18.0733 6.22667 17.06 6.16C15.66 6.05333 13.9733 6 12 6C10.0267 6 8.34 6.05333 6.94 6.16C5.92667 6.22667 5.26 6.30667 4.94 6.4C4.80667 6.44 4.69333 6.51333 4.6 6.62C4.50667 6.72667 4.44 6.85333 4.4 7C4.30667 7.32 4.22667 7.85333 4.16 8.6C4.05333 9.64 4 10.7733 4 12C4 13.2267 4.05333 14.36 4.16 15.4C4.22667 16.1467 4.30667 16.68 4.4 17C4.44 17.1467 4.50667 17.2733 4.6 17.38C4.69333 17.4867 4.80667 17.56 4.94 17.6C5.26 17.6933 5.92667 17.7733 6.94 17.84C8.34 17.9467 10.0267 18 12 18C13.9733 18 15.66 17.9467 17.06 17.84C18.0733 17.7733 18.74 17.6933 19.06 17.6C19.1933 17.56 19.3067 17.4867 19.4 17.38C19.4933 17.2733 19.56 17.1467 19.6 17C19.6933 16.68 19.7733 16.1467 19.84 15.4C19.9467 14.36 20 13.2267 20 12C20 10.7733 19.9467 9.64 19.84 8.6C19.7733 7.85333 19.6933 7.32 19.6 7ZM21.54 6.5C21.6733 7.03333 21.78 7.77333 21.86 8.72C21.9133 9.4 21.9533 10.1467 21.98 10.96L22 12L21.98 13.04C21.9533 13.8533 21.9133 14.6 21.86 15.28C21.78 16.2267 21.6733 16.9667 21.54 17.5C21.42 17.9933 21.1867 18.42 20.84 18.78C20.4933 19.14 20.08 19.3867 19.6 19.52C19.0933 19.6667 18.1867 19.78 16.88 19.86C15.9333 19.9133 14.84 19.9533 13.6 19.98L12 20L10.4 19.98C9.16 19.9533 8.06667 19.9133 7.12 19.86C5.81333 19.78 4.90667 19.6667 4.4 19.52C3.92 19.3867 3.50667 19.14 3.16 18.78C2.81333 18.42 2.58 17.9933 2.46 17.5C2.27333 16.7533 2.14 15.6133 2.06 14.08C2.02 13.32 2 12.6267 2 12L2.02 10.96C2.04667 10.1467 2.08667 9.4 2.14 8.72C2.22 7.77333 2.32667 7.03333 2.46 6.5C2.58 6.00667 2.81333 5.58 3.16 5.22C3.50667 4.86 3.92 4.61333 4.4 4.48C4.90667 4.33333 5.81333 4.22 7.12 4.14C8.06667 4.08667 9.16 4.04667 10.4 4.02L12 4L13.6 4.02C14.84 4.04667 15.9333 4.08667 16.88 4.14C18.1867 4.22 19.0933 4.33333 19.6 4.48C20.08 4.61333 20.4933 4.86 20.84 5.22C21.1867 5.58 21.42 6.00667 21.54 6.5ZM10 15.5V8.5L16 12L10 15.5Z" fill="white"/>
</svg>
